# xmcd
#
# Track frame offsets: 
#        150
#        12930
#        25819
#        38326
#        50340
#        62242
#        75617
#        87687
#        99606
#        113220
#        126752
#        139821
#        151685
#        164314
#        176204
#        189588
#        200858
#        214232
#        227408
#        240386
#        250379
#        263270
#        273269
#        285146
#        297752
#
# Disc length: 4146 seconds
#
# Revision: 1
# Processed by: cddbd v1.5.1PL2 Copyright (c) Steve Scherf et al.
# Submitted via: ExactAudioCopy v0.95b3
#
DISCID=55103019
DTITLE=Tex Williams and His Western Caravan - That's What I Like About t
DTITLE=he West
DYEAR=2001
DGENRE=Western Swing
TTITLE0=That's What I Like About the West [1947]
TTITLE1=Spade Cooley and His Orchestra - Shame on You [1944]
TTITLE2=Spade Cooley and His Orchestra - Forgive Me One More Time [1944]
TTITLE3=Spade Cooley and His Orchestra - I've Taken All I'm Gonna Take f
TTITLE3=rom You [1944]
TTITLE4=Spade Cooley and His Orchestra - Troubled over You [1945]
TTITLE5=Spade Cooley and His Orchestra - You Can't Break My Heart [1946]
TTITLE6=Spade Cooley and His Orchestra - Detour [1946]
TTITLE7=Spade Cooley and His Orchestra - Crazy 'Cause I Love You [1946]
TTITLE8=The California Polka [1946]
TTITLE9=Foolish Tears [1946]
TTITLE10=Smoke, Smoke, Smoke That Cigarette! [1947]
TTITLE11=The Leaf of Love [1946]
TTITLE12=Talking Boogie [1947]
TTITLE13=Miss Molly [1947]
TTITLE14=Never Trust a Woman [1947]
TTITLE15=Don't Telephone, Don't Telegraph, Tell a Woman [1947]
TTITLE16=Suspicion [1947]
TTITLE17=Artistry in Western Swing [1947]
TTITLE18=Who? Me? [1947]
TTITLE19=You Broke Your Promise [1947]
TTITLE20=Ham and Eggs [1949]
TTITLE21=Great Big Needle [1950]
TTITLE22=Wild Card [1950]
TTITLE23=Birmingham Bounce [1950]
TTITLE24=Life Gits Teejus, Don't It? [1948]
EXTD=Recorded 1944-12-04/1946-01-03 (tracks 2-8) and 1946-08-03/1950-08-
EXTD=09 (tracks 1,9-25).\nSollie Paul "Tex" Williams (1917-08-23/1985-
EXTD=10-11): guitar, vocals\nOther personnel varies.\nCD: ASV Living E
EXTD=ra CD AJA 5413 (2001), UPC 743625541328.
EXTT0=
EXTT1=
EXTT2=
EXTT3=
EXTT4=
EXTT5=
EXTT6=
EXTT7=
EXTT8=
EXTT9=
EXTT10=
EXTT11=
EXTT12=
EXTT13=
EXTT14=
EXTT15=
EXTT16=
EXTT17=
EXTT18=
EXTT19=
EXTT20=
EXTT21=
EXTT22=
EXTT23=
EXTT24=
PLAYORDER=
